<svg width="67" height="67" viewBox="0 0 67 67" fill="none" xmlns="http://www.w3.org/2000/svg">
<g clip-path="url(#clip0)">
<path d="M25.0012 33.335C28.3166 33.335 31.4962 32.018 33.8405 29.6736C36.1848 27.3293 37.5019 24.1497 37.5019 20.8344C37.5019 17.519 36.1848 14.3394 33.8405 11.9951C31.4962 9.65077 28.3166 8.33374 25.0012 8.33374C21.6859 8.33374 18.5063 9.65077 16.162 11.9951C13.8177 14.3394 12.5006 17.519 12.5006 20.8344C12.5006 24.1497 13.8177 27.3293 16.162 29.6736C18.5063 32.018 21.6859 33.335 25.0012 33.335ZM4.16687 58.3362C4.16687 58.3362 0 58.3362 0 54.1694C0 50.0025 4.16687 37.5019 25.0012 37.5019C45.8356 37.5019 50.0025 50.0025 50.0025 54.1694C50.0025 58.3362 45.8356 58.3362 45.8356 58.3362H4.16687ZM45.8356 14.5841C45.8356 14.0315 46.0551 13.5016 46.4458 13.1108C46.8366 12.7201 47.3665 12.5006 47.9191 12.5006H64.5866C65.1391 12.5006 65.6691 12.7201 66.0598 13.1108C66.4505 13.5016 66.67 14.0315 66.67 14.5841C66.67 15.1366 66.4505 15.6665 66.0598 16.0573C65.6691 16.448 65.1391 16.6675 64.5866 16.6675H47.9191C47.3665 16.6675 46.8366 16.448 46.4458 16.0573C46.0551 15.6665 45.8356 15.1366 45.8356 14.5841ZM47.9191 25.0012C47.3665 25.0012 46.8366 25.2207 46.4458 25.6115C46.0551 26.0022 45.8356 26.5321 45.8356 27.0847C45.8356 27.6372 46.0551 28.1672 46.4458 28.5579C46.8366 28.9486 47.3665 29.1681 47.9191 29.1681H64.5866C65.1391 29.1681 65.6691 28.9486 66.0598 28.5579C66.4505 28.1672 66.67 27.6372 66.67 27.0847C66.67 26.5321 66.4505 26.0022 66.0598 25.6115C65.6691 25.2207 65.1391 25.0012 64.5866 25.0012H47.9191ZM56.2528 37.5019C55.7002 37.5019 55.1703 37.7214 54.7796 38.1121C54.3889 38.5028 54.1694 39.0327 54.1694 39.5853C54.1694 40.1379 54.3889 40.6678 54.7796 41.0585C55.1703 41.4492 55.7002 41.6687 56.2528 41.6687H64.5866C65.1391 41.6687 65.6691 41.4492 66.0598 41.0585C66.4505 40.6678 66.67 40.1379 66.67 39.5853C66.67 39.0327 66.4505 38.5028 66.0598 38.1121C65.6691 37.7214 65.1391 37.5019 64.5866 37.5019H56.2528ZM56.2528 50.0025C55.7002 50.0025 55.1703 50.222 54.7796 50.6127C54.3889 51.0034 54.1694 51.5334 54.1694 52.0859C54.1694 52.6385 54.3889 53.1684 54.7796 53.5591C55.1703 53.9499 55.7002 54.1694 56.2528 54.1694H64.5866C65.1391 54.1694 65.6691 53.9499 66.0598 53.5591C66.4505 53.1684 66.67 52.6385 66.67 52.0859C66.67 51.5334 66.4505 51.0034 66.0598 50.6127C65.6691 50.222 65.1391 50.0025 64.5866 50.0025H56.2528Z" fill="#FFFFB3"/>
</g>
<defs>
<clipPath id="clip0">
<rect width="66.67" height="66.67" fill="white"/>
</clipPath>
</defs>
</svg>
