<svg width="100" height="100" viewBox="0 0 100 100" fill="none" xmlns="http://www.w3.org/2000/svg">
<path d="M12.5 6.25C10.8424 6.25 9.25268 6.90848 8.08058 8.08058C6.90848 9.25268 6.25 10.8424 6.25 12.5V62.5C6.25 64.1576 6.90848 65.7473 8.08058 66.9194C9.25268 68.0915 10.8424 68.75 12.5 68.75H72.4125C75.7274 68.7507 78.9063 70.0681 81.25 72.4125L93.75 84.9125V12.5C93.75 10.8424 93.0915 9.25268 91.9194 8.08058C90.7473 6.90848 89.1576 6.25 87.5 6.25H12.5ZM87.5 0C90.8152 0 93.9946 1.31696 96.3388 3.66117C98.683 6.00537 100 9.18479 100 12.5V92.4563C99.9999 93.0746 99.8163 93.679 99.4725 94.193C99.1287 94.7069 98.6402 95.1074 98.0688 95.3436C97.4973 95.5798 96.8686 95.6412 96.2623 95.5199C95.6559 95.3987 95.0992 95.1003 94.6625 94.6625L76.8313 76.8313C75.6594 75.6591 74.07 75.0004 72.4125 75H12.5C9.18479 75 6.00537 73.683 3.66117 71.3388C1.31696 68.9946 0 65.8152 0 62.5V12.5C0 9.18479 1.31696 6.00537 3.66117 3.66117C6.00537 1.31696 9.18479 0 12.5 0L87.5 0Z" fill="#FFFFB3"/>
<path d="M18.75 21.875C18.75 21.0462 19.0792 20.2513 19.6653 19.6653C20.2513 19.0792 21.0462 18.75 21.875 18.75H78.125C78.9538 18.75 79.7487 19.0792 80.3347 19.6653C80.9208 20.2513 81.25 21.0462 81.25 21.875C81.25 22.7038 80.9208 23.4987 80.3347 24.0847C79.7487 24.6708 78.9538 25 78.125 25H21.875C21.0462 25 20.2513 24.6708 19.6653 24.0847C19.0792 23.4987 18.75 22.7038 18.75 21.875ZM18.75 37.5C18.75 36.6712 19.0792 35.8763 19.6653 35.2903C20.2513 34.7042 21.0462 34.375 21.875 34.375H78.125C78.9538 34.375 79.7487 34.7042 80.3347 35.2903C80.9208 35.8763 81.25 36.6712 81.25 37.5C81.25 38.3288 80.9208 39.1237 80.3347 39.7097C79.7487 40.2958 78.9538 40.625 78.125 40.625H21.875C21.0462 40.625 20.2513 40.2958 19.6653 39.7097C19.0792 39.1237 18.75 38.3288 18.75 37.5ZM18.75 53.125C18.75 52.2962 19.0792 51.5013 19.6653 50.9153C20.2513 50.3292 21.0462 50 21.875 50H53.125C53.9538 50 54.7487 50.3292 55.3347 50.9153C55.9208 51.5013 56.25 52.2962 56.25 53.125C56.25 53.9538 55.9208 54.7487 55.3347 55.3347C54.7487 55.9208 53.9538 56.25 53.125 56.25H21.875C21.0462 56.25 20.2513 55.9208 19.6653 55.3347C19.0792 54.7487 18.75 53.9538 18.75 53.125Z" fill="#FFFFB3"/>
</svg>
