<svg width="68" height="68" viewBox="0 0 68 68" fill="none" xmlns="http://www.w3.org/2000/svg">
<path d="M24.6541 0.982789C24.8889 1.13275 25.0937 1.33058 25.2568 1.56497C25.4198 1.79936 25.538 2.06573 25.6046 2.34886C25.6711 2.63199 25.6847 2.92633 25.6446 3.21506C25.6045 3.5038 25.5115 3.78128 25.3708 4.03165L14.7625 22.8893H53.2375L42.625 4.03165C42.341 3.52598 42.2569 2.92067 42.3913 2.3489C42.5257 1.77713 42.8675 1.28572 43.3416 0.982789C43.8157 0.679855 44.3832 0.590208 44.9192 0.733567C45.4553 0.876927 45.916 1.24155 46.2 1.74723L58.0958 22.8893H63.1666C64.2717 22.8893 65.3315 23.3575 66.1129 24.191C66.8943 25.0245 67.3333 26.155 67.3333 27.3337V31.7781C67.3333 32.9568 66.8943 34.0873 66.1129 34.9208C65.3315 35.7542 64.2717 36.2225 63.1666 36.2225V56.2223C63.1666 59.1692 62.0692 61.9953 60.1157 64.079C58.1621 66.1627 55.5126 67.3334 52.75 67.3334H15.25C12.4873 67.3334 9.83777 66.1627 7.88426 64.079C5.93076 61.9953 4.83329 59.1692 4.83329 56.2223V36.2225C3.72822 36.2225 2.66842 35.7542 1.88701 34.9208C1.10561 34.0873 0.666626 32.9568 0.666626 31.7781V27.3337C0.666626 26.155 1.10561 25.0245 1.88701 24.191C2.66842 23.3575 3.72822 22.8893 4.83329 22.8893H9.90413L21.7916 1.74723C21.9322 1.4968 22.1177 1.27837 22.3374 1.10442C22.5572 0.930467 22.8069 0.804395 23.0723 0.733406C23.3378 0.662418 23.6137 0.647905 23.8844 0.690694C24.1551 0.733484 24.4152 0.832738 24.65 0.982789H24.6541ZM8.99996 36.2225V56.2223C8.99996 57.9904 9.65844 59.6861 10.8305 60.9363C12.0026 62.1866 13.5924 62.8889 15.25 62.8889H52.75C54.4076 62.8889 55.9973 62.1866 57.1694 60.9363C58.3415 59.6861 59 57.9904 59 56.2223V36.2225H8.99996ZM4.83329 27.3337V31.7781H63.1666V27.3337H4.83329ZM17.3333 40.6669C17.8858 40.6669 18.4157 40.901 18.8064 41.3178C19.1971 41.7345 19.4166 42.2997 19.4166 42.8891V56.2223C19.4166 56.8117 19.1971 57.3769 18.8064 57.7937C18.4157 58.2104 17.8858 58.4445 17.3333 58.4445C16.7808 58.4445 16.2509 58.2104 15.8602 57.7937C15.4695 57.3769 15.25 56.8117 15.25 56.2223V42.8891C15.25 42.2997 15.4695 41.7345 15.8602 41.3178C16.2509 40.901 16.7808 40.6669 17.3333 40.6669ZM25.6666 40.6669C26.2192 40.6669 26.7491 40.901 27.1398 41.3178C27.5305 41.7345 27.75 42.2997 27.75 42.8891V56.2223C27.75 56.8117 27.5305 57.3769 27.1398 57.7937C26.7491 58.2104 26.2192 58.4445 25.6666 58.4445C25.1141 58.4445 24.5842 58.2104 24.1935 57.7937C23.8028 57.3769 23.5833 56.8117 23.5833 56.2223V42.8891C23.5833 42.2997 23.8028 41.7345 24.1935 41.3178C24.5842 40.901 25.1141 40.6669 25.6666 40.6669ZM34 40.6669C34.5525 40.6669 35.0824 40.901 35.4731 41.3178C35.8638 41.7345 36.0833 42.2997 36.0833 42.8891V56.2223C36.0833 56.8117 35.8638 57.3769 35.4731 57.7937C35.0824 58.2104 34.5525 58.4445 34 58.4445C33.4474 58.4445 32.9175 58.2104 32.5268 57.7937C32.1361 57.3769 31.9166 56.8117 31.9166 56.2223V42.8891C31.9166 42.2997 32.1361 41.7345 32.5268 41.3178C32.9175 40.901 33.4474 40.6669 34 40.6669ZM42.3333 40.6669C42.8858 40.6669 43.4157 40.901 43.8064 41.3178C44.1971 41.7345 44.4166 42.2997 44.4166 42.8891V56.2223C44.4166 56.8117 44.1971 57.3769 43.8064 57.7937C43.4157 58.2104 42.8858 58.4445 42.3333 58.4445C41.7808 58.4445 41.2509 58.2104 40.8601 57.7937C40.4695 57.3769 40.25 56.8117 40.25 56.2223V42.8891C40.25 42.2997 40.4695 41.7345 40.8601 41.3178C41.2509 40.901 41.7808 40.6669 42.3333 40.6669ZM50.6666 40.6669C51.2192 40.6669 51.7491 40.901 52.1398 41.3178C52.5305 41.7345 52.75 42.2997 52.75 42.8891V56.2223C52.75 56.8117 52.5305 57.3769 52.1398 57.7937C51.7491 58.2104 51.2192 58.4445 50.6666 58.4445C50.1141 58.4445 49.5842 58.2104 49.1935 57.7937C48.8028 57.3769 48.5833 56.8117 48.5833 56.2223V42.8891C48.5833 42.2997 48.8028 41.7345 49.1935 41.3178C49.5842 40.901 50.1141 40.6669 50.6666 40.6669Z" fill="#FFFFB3"/>
</svg>
