<?xml version="1.0" standalone="no"?>
<svg xmlns="http://www.w3.org/2000/svg" viewBox="0 0 161.232 29.86" width="161.232" height="29.86"><g fill="#6a381f" color="#6a381f" transform="translate(0, 0) scale(0.29)"><svg width="100.0" height="100.0" x="0.0" y="0.0" viewBox="0 0 100 100"><path d="M94.05,51.572L53.179,21.701c-1.806-1.8-4.998-1.8-6.805,0L6.192,50.883c-1.879,1.879-2.1,4.471-0.269,6.4  c0.531,0.555,1.218,0.885,1.958,1.047c1.08,0.311,2.246,0.191,3.253-0.354c0.083-0.035,0.156-0.084,0.237-0.125  c0.033-0.023,0.068-0.037,0.102-0.057c0.48-0.252,1.107-0.557,1.494-0.945L18,53.432v30.125C18,85.066,19.063,87,20.575,87h58.83  C80.917,87,83,85.066,83,83.561V53.432l4.489,3.59c0.094,0.088,0.048,0.158,0.144,0.236l0.364,0.438c1.69,1.691,4.396,1.691,6.087,0  S95.739,53.264,94.05,51.572z M49,54h15.101C66.115,54,68,54.729,68,56.743V64H49V54z M37.703,49.552  c2.374,0,4.388,2.014,4.388,4.389c0,2.445-2.014,4.387-4.388,4.387s-4.388-1.941-4.388-4.387  C33.315,51.565,35.329,49.552,37.703,49.552z M35.329,60H43v-4.837c0-1.152,0.922-2.016,2-2.016c1.152,0,2,0.863,2,2.016v5.609  C47,62.067,45.759,64,44.536,64h-9.207c-1.15,0-2.014-0.885-2.014-2.035C33.315,60.885,34.179,60,35.329,60z M74,79h-4v-7H32v7h-4  V50.984c0-1.295,0.706-2.445,2-2.445s2,1.15,2,2.445V66h38v-9.045c0-1.295,0.741-2.375,1.964-2.375c1.295,0,2.036,1.08,2.036,2.375  V79z"></path></svg></g><line x1="41" y1="1" x2="41" y2="28" stroke="#dcab6b" stroke-linecap="round"></line><path fill="#dcab6b" fill-rule="nonzero" d="M11.30 19.37Q10.37 19.37 9.25 18.96Q8.14 18.55 6.31 17.71L6.31 17.71L5.06 17.14Q3.79 18.55 2.40 18.55L2.40 18.55Q1.68 18.55 1.13 18.22Q0.58 17.88 0.29 17.39Q0 16.90 0 16.46L0 16.46Q0 15.98 0.42 15.70Q0.84 15.41 1.75 15.41L1.75 15.41Q2.81 15.41 4.70 15.91L4.70 15.91Q5.30 14.86 5.83 13.40Q6.36 11.95 7.13 9.50L7.13 9.50L7.70 7.68Q6.60 7.32 5.96 6.62Q5.33 5.93 5.33 5.11L5.33 5.11Q5.33 4.42 5.75 3.82Q6.17 3.22 6.82 3.22L6.82 3.22Q6.65 3.43 6.58 3.86Q6.50 4.30 6.50 4.70L6.50 4.70Q6.50 5.59 6.88 6.22Q7.25 6.84 7.87 7.18L7.87 7.18Q8.98 3.79 10.18 1.90Q11.38 0 13.03 0L13.03 0Q13.92 0 14.64 0.58Q15.36 1.15 15.36 2.45L15.36 2.45Q15.36 3.65 14.71 4.93Q14.06 6.22 12.76 7.09Q11.45 7.97 9.60 7.97L9.60 7.97L9.22 7.97Q8.23 10.94 7.46 12.89Q6.70 14.83 5.76 16.22L5.76 16.22Q5.95 16.30 6.17 16.36Q6.38 16.42 6.60 16.49L6.60 16.49Q8.64 17.11 9.86 17.41Q11.09 17.71 12.12 17.71L12.12 17.71Q13.08 17.71 13.82 17.33L13.82 17.33Q13.44 18.41 12.82 18.89Q12.19 19.37 11.30 19.37L11.30 19.37ZM9.36 7.51Q10.70 7.51 11.78 6.53Q12.86 5.54 13.46 4.19Q14.06 2.83 14.06 1.80L14.06 1.80Q14.06 1.15 13.82 0.88Q13.58 0.60 13.20 0.60L13.20 0.60Q12.19 0.60 11.35 2.32Q10.51 4.03 9.36 7.51L9.36 7.51ZM2.30 17.86Q3.31 17.86 4.15 16.75L4.15 16.75Q2.38 16.03 1.42 16.03L1.42 16.03Q0.62 16.03 0.62 16.49L0.62 16.49Q0.62 16.94 1.12 17.40Q1.61 17.86 2.30 17.86L2.30 17.86ZM17.69 18.34Q16.27 18.34 15.52 17.56Q14.76 16.78 14.76 15.55L14.76 15.55Q14.76 14.14 15.70 12.50Q16.63 10.87 18.06 9.76Q19.49 8.64 20.86 8.64L20.86 8.64Q22.34 8.64 22.34 10.10L22.34 10.10Q22.34 11.28 21.46 12.30Q20.57 13.32 19.18 13.97Q17.78 14.62 16.39 14.76L16.39 14.76Q16.30 15.17 16.30 15.62L16.30 15.62Q16.30 16.49 16.73 17.06Q17.16 17.64 18.19 17.64L18.19 17.64Q19.66 17.64 21.14 16.42Q22.63 15.19 23.57 13.39L23.57 13.39L23.86 13.61Q22.90 15.74 21.19 17.04Q19.49 18.34 17.69 18.34L17.69 18.34ZM16.51 14.30Q17.52 13.94 18.62 13.30Q19.73 12.65 20.51 11.77Q21.29 10.90 21.29 9.94L21.29 9.94Q21.29 9.65 21.18 9.52Q21.07 9.38 20.78 9.38L20.78 9.38Q20.04 9.38 19.16 10.13Q18.29 10.87 17.56 12.02Q16.82 13.18 16.51 14.30L16.51 14.30ZM30.24 24Q29.66 24 29.26 23.65Q28.85 23.30 28.85 22.61L28.85 22.61Q28.85 21.72 29.54 20.96Q30.24 20.21 31.14 19.67Q32.04 19.13 33.53 18.38L33.53 18.38Q34.20 16.66 34.75 14.42L34.75 14.42Q32.62 17.50 30.84 17.50L30.84 17.50Q30.00 17.50 29.52 16.86Q29.04 16.22 29.04 15.17L29.04 15.17Q29.04 13.58 30.06 12.14Q31.08 10.70 32.58 9.83Q34.08 8.95 35.40 8.95L35.40 8.95Q36.05 8.95 36.37 9.17Q36.70 9.38 36.70 9.72L36.70 9.72Q36.70 9.91 36.59 10.04Q36.48 10.18 36.41 10.20L36.41 10.20Q36.17 9.84 35.45 9.84L35.45 9.84Q34.25 9.84 33.13 10.75Q32.02 11.66 31.32 12.96Q30.62 14.26 30.62 15.29L30.62 15.29Q30.62 15.86 30.85 16.16Q31.08 16.46 31.46 16.46L31.46 16.46Q32.11 16.46 33.08 15.58Q34.06 14.69 35.02 13.30L35.02 13.30L35.30 12.02Q35.40 11.57 35.70 11.18Q36 10.80 36.53 10.80L36.53 10.80Q36.74 10.80 37.03 10.87L37.03 10.87Q37.03 11.52 36.50 13.48Q35.98 15.43 35.18 17.45L35.18 17.45Q36.43 16.85 37.50 15.78Q38.57 14.71 39.10 13.39L39.10 13.39L39.41 13.63Q38.90 15.10 37.60 16.30Q36.29 17.50 34.92 18.14L34.92 18.14Q33.79 20.88 32.64 22.44Q31.49 24 30.24 24L30.24 24ZM30.17 23.23Q30.72 23.23 31.55 22.19Q32.38 21.14 33.26 19.03L33.26 19.03Q31.51 19.92 30.55 20.69Q29.59 21.46 29.59 22.39L29.59 22.39Q29.59 22.78 29.75 23.00Q29.90 23.23 30.17 23.23L30.17 23.23ZM43.27 6.91Q42.84 6.91 42.56 6.71Q42.29 6.50 42.29 6.12L42.29 6.12Q42.29 5.64 42.86 5.26Q43.44 4.87 44.04 4.87L44.04 4.87Q44.83 4.87 44.83 5.62L44.83 5.62Q44.83 6.07 44.34 6.49Q43.85 6.91 43.27 6.91L43.27 6.91ZM40.39 17.90Q39.50 17.90 39.02 17.34Q38.54 16.78 38.54 15.89L38.54 15.89Q38.54 14.95 39.08 13.30Q39.62 11.64 40.43 10.39Q41.23 9.14 42 9.14L42 9.14Q42.22 9.14 42.37 9.29Q42.53 9.43 42.53 9.67L42.53 9.67Q42.53 10.01 41.76 11.28L41.76 11.28Q40.97 12.60 40.50 13.64Q40.03 14.69 40.03 15.62L40.03 15.62Q40.03 16.46 40.31 16.76Q40.58 17.06 41.21 17.06L41.21 17.06Q43.08 17.06 44.90 13.39L44.90 13.39L45.12 13.63Q44.45 15.65 43.14 16.78Q41.83 17.90 40.39 17.90L40.39 17.90ZM46.49 18.38Q44.35 18.38 44.35 16.01L44.35 16.01Q44.35 14.98 44.72 13.45Q45.10 11.93 45.74 10.22L45.74 10.22Q45.17 10.13 44.88 10.03L44.88 10.03L44.88 9.60Q45.74 9.70 45.94 9.70L45.94 9.70Q46.99 6.96 48.20 4.96Q49.42 2.95 50.11 2.95L50.11 2.95Q50.30 2.95 50.46 3.10Q50.62 3.24 50.62 3.48L50.62 3.48Q50.62 3.79 50.32 4.39Q50.02 4.99 49.30 6.24L49.30 6.24Q49.18 6.48 48.55 7.57Q47.93 8.66 47.42 9.77L47.42 9.77L48.31 9.77Q50.30 9.77 51.74 9.62L51.74 9.62L51.74 10.06Q49.13 10.34 47.52 10.34L47.52 10.34L47.16 10.34Q45.84 13.37 45.84 15.58L45.84 15.58Q45.84 16.61 46.15 17.05Q46.46 17.50 47.18 17.50L47.18 17.50Q48.41 17.50 49.61 16.40Q50.81 15.31 51.74 13.39L51.74 13.39L52.06 13.63Q51.17 15.72 49.66 17.05Q48.14 18.38 46.49 18.38L46.49 18.38ZM53.88 18.34Q52.46 18.34 51.71 17.56Q50.95 16.78 50.95 15.55L50.95 15.55Q50.95 14.14 51.89 12.50Q52.82 10.87 54.25 9.76Q55.68 8.64 57.05 8.64L57.05 8.64Q58.54 8.64 58.54 10.10L58.54 10.10Q58.54 11.28 57.65 12.30Q56.76 13.32 55.37 13.97Q53.98 14.62 52.58 14.76L52.58 14.76Q52.49 15.17 52.49 15.62L52.49 15.62Q52.49 16.49 52.92 17.06Q53.35 17.64 54.38 17.64L54.38 17.64Q55.85 17.64 57.34 16.42Q58.82 15.19 59.76 13.39L59.76 13.39L60.05 13.61Q59.09 15.74 57.38 17.04Q55.68 18.34 53.88 18.34L53.88 18.34ZM52.70 14.30Q53.71 13.94 54.82 13.30Q55.92 12.65 56.70 11.77Q57.48 10.90 57.48 9.94L57.48 9.94Q57.48 9.65 57.37 9.52Q57.26 9.38 56.98 9.38L56.98 9.38Q56.23 9.38 55.36 10.13Q54.48 10.87 53.75 12.02Q53.02 13.18 52.70 14.30L52.70 14.30ZM66.65 18.19Q66.22 18.19 65.94 17.45Q65.66 16.70 65.66 15.70L65.66 15.70Q65.66 13.49 67.02 9.74Q68.38 6.00 70.10 3.07Q71.83 0.14 72.84 0.14L72.84 0.14Q73.22 0.14 73.43 0.61Q73.63 1.08 73.63 1.66L73.63 1.66Q73.63 2.78 72.83 4.66Q72.02 6.53 70.74 8.26Q69.46 9.98 68.11 10.80L68.11 10.80Q67.68 11.81 67.45 13.14Q67.22 14.47 67.22 15.53L67.22 15.53Q67.22 15.91 67.27 16.34L67.27 16.34Q68.23 13.56 69.44 11.84Q70.66 10.13 72.14 10.13L72.14 10.13Q73.06 10.13 73.51 10.76Q73.97 11.40 73.97 12.29L73.97 12.29Q73.97 12.82 73.84 13.30Q73.70 13.78 73.42 14.54L73.42 14.54Q73.18 15.19 73.06 15.58Q72.94 15.96 72.94 16.32L72.94 16.32Q72.94 16.78 73.13 17.00Q73.32 17.23 73.66 17.23L73.66 17.23Q74.47 17.23 75.58 16.09Q76.68 14.95 77.40 13.39L77.40 13.39L77.71 13.68Q76.92 15.50 75.68 16.68Q74.45 17.86 73.10 17.86L73.10 17.86Q72.31 17.86 71.88 17.44Q71.45 17.02 71.45 16.34L71.45 16.34Q71.45 15.82 71.81 14.64L71.81 14.64Q72.19 13.34 72.19 12.72L72.19 12.72Q72.19 12.12 71.94 11.84Q71.69 11.57 71.28 11.57L71.28 11.57Q70.39 11.57 69.73 12.61Q69.07 13.66 68.30 15.55L68.30 15.55Q67.73 16.94 67.39 17.57Q67.06 18.19 66.65 18.19L66.65 18.19ZM68.42 9.86Q69.46 9.05 70.48 7.50Q71.50 5.95 72.16 4.43Q72.82 2.90 72.82 2.28L72.82 2.28Q72.82 2.09 72.72 2.09L72.72 2.09Q72.46 2.09 71.63 3.28Q70.80 4.46 69.89 6.26Q68.98 8.06 68.42 9.86L68.42 9.86ZM78.74 18Q77.95 18 77.45 17.29Q76.94 16.58 76.94 15.58L76.94 15.58Q76.94 14.69 77.32 13.38Q77.69 12.07 78.20 11.10Q78.72 10.13 79.06 10.13L79.06 10.13Q79.20 10.13 79.48 10.27Q79.75 10.42 79.94 10.61L79.94 10.61Q79.44 11.40 78.89 12.88Q78.34 14.35 78.34 15.43L78.34 15.43Q78.34 15.98 78.52 16.51Q78.70 17.04 79.20 17.04L79.20 17.04Q80.04 17.04 81.04 15.49Q82.03 13.94 83.18 11.57L83.18 11.57L83.57 10.78Q84.72 10.99 84.72 11.40L84.72 11.40Q84.72 11.45 84.61 11.72Q84.50 12 84.41 12.22L84.41 12.22Q83.86 13.44 83.48 14.51Q83.11 15.58 83.11 16.32L83.11 16.32Q83.11 17.28 83.90 17.28L83.90 17.28Q84.43 17.28 85.15 16.81Q85.87 16.34 86.62 15.46Q87.36 14.57 87.91 13.39L87.91 13.39L88.22 13.61Q87.72 14.88 86.92 15.88Q86.11 16.87 85.18 17.44Q84.24 18 83.40 18L83.40 18Q81.72 18 81.72 16.22L81.72 16.22Q81.72 15.74 81.89 15.02L81.89 15.02Q81.12 16.39 80.35 17.20Q79.58 18 78.74 18L78.74 18ZM91.61 17.90Q90.79 17.90 90.32 17.47Q89.86 17.04 89.86 16.34L89.86 16.34Q89.86 15.53 90.55 13.99L90.55 13.99Q90.86 13.20 91.02 12.73Q91.18 12.26 91.18 11.86L91.18 11.86Q91.18 11.26 90.90 10.91Q90.62 10.56 90.29 10.33Q89.95 10.10 89.83 10.03L89.83 10.03Q89.30 11.38 88.70 12.66Q88.10 13.94 87.70 14.64L87.70 14.64L87.48 14.23Q88.63 12 89.42 9.67L89.42 9.67Q89.18 9.43 89.18 9.10L89.18 9.10Q89.18 8.66 89.36 8.28Q89.54 7.90 89.80 7.68Q90.05 7.46 90.19 7.46L90.19 7.46Q90.53 7.46 90.53 8.04L90.53 8.04Q90.53 8.14 90.41 8.47Q90.29 8.81 90.26 8.93L90.26 8.93Q90.26 9.17 90.47 9.37Q90.67 9.58 91.13 9.89L91.13 9.89Q91.87 10.42 92.29 10.93Q92.71 11.45 92.71 12.26L92.71 12.26Q92.71 12.79 92.54 13.31Q92.38 13.82 92.04 14.66L92.04 14.66Q91.51 15.82 91.51 16.32L91.51 16.32Q91.51 17.04 92.23 17.04L92.23 17.04Q92.95 17.04 93.78 16.46Q94.61 15.89 95.30 15.04Q96.00 14.18 96.31 13.46L96.31 13.46L96.62 13.70Q95.88 15.36 94.46 16.63Q93.05 17.90 91.61 17.90L91.61 17.90ZM97.80 18Q96.82 18 96.35 17.33Q95.88 16.66 95.88 15.53L95.88 15.53Q95.88 13.37 97.37 9.66Q98.86 5.95 100.69 2.98Q102.53 0 103.34 0L103.34 0Q103.68 0 103.91 0.59Q104.14 1.18 104.14 1.78L104.14 1.78Q104.14 2.88 103.24 5.03Q102.34 7.18 100.87 9.38Q99.41 11.59 97.75 12.96L97.75 12.96Q97.44 14.35 97.44 15.38L97.44 15.38Q97.44 17.23 98.50 17.23L98.50 17.23Q99.38 17.23 100.31 16.10Q101.23 14.98 101.95 13.39L101.95 13.39L102.31 13.58Q100.25 18 97.80 18L97.80 18ZM97.97 12.14Q99.29 10.82 100.55 8.82Q101.81 6.82 102.60 4.98Q103.39 3.14 103.39 2.33L103.39 2.33Q103.39 1.94 103.22 1.94L103.22 1.94Q102.89 1.94 101.84 3.59Q100.80 5.23 99.70 7.61Q98.59 9.98 97.97 12.14L97.97 12.14ZM104.06 18.34Q102.65 18.34 101.89 17.56Q101.14 16.78 101.14 15.55L101.14 15.55Q101.14 14.14 102.07 12.50Q103.01 10.87 104.44 9.76Q105.86 8.64 107.23 8.64L107.23 8.64Q108.72 8.64 108.72 10.10L108.72 10.10Q108.72 11.28 107.83 12.30Q106.94 13.32 105.55 13.97Q104.16 14.62 102.77 14.76L102.77 14.76Q102.67 15.17 102.67 15.62L102.67 15.62Q102.67 16.49 103.10 17.06Q103.54 17.64 104.57 17.64L104.57 17.64Q106.03 17.64 107.52 16.42Q109.01 15.19 109.94 13.39L109.94 13.39L110.23 13.61Q109.27 15.74 107.57 17.04Q105.86 18.34 104.06 18.34L104.06 18.34ZM102.89 14.30Q103.90 13.94 105 13.30Q106.10 12.65 106.88 11.77Q107.66 10.90 107.66 9.94L107.66 9.94Q107.66 9.65 107.56 9.52Q107.45 9.38 107.16 9.38L107.16 9.38Q106.42 9.38 105.54 10.13Q104.66 10.87 103.93 12.02Q103.20 13.18 102.89 14.30L102.89 14.30Z" transform="translate(51, 5.86)"></path></svg>