<svg width="550" height="110" viewBox="0 0 550 110" fill="none" xmlns="http://www.w3.org/2000/svg">
<g clip-path="url(#clip0)">
<path d="M93.0397 55.0954L52.6077 23.1836C50.8211 21.2607 47.6634 21.2607 45.8758 23.1836L6.12546 54.3593C4.26664 56.3667 4.04801 59.1358 5.85935 61.1965C6.38464 61.7895 7.06426 62.142 7.79631 62.3151C8.86471 62.6473 10.0182 62.5191 11.0144 61.9369C11.0965 61.8995 11.1687 61.8471 11.2488 61.8033C11.2815 61.7788 11.3161 61.7638 11.3497 61.7425C11.8246 61.4732 12.4448 61.1474 12.8277 60.7329L17.8066 57.0824V89.2655C17.8066 90.8776 18.8582 92.9438 20.354 92.9438H78.552C80.0477 92.9438 82.1084 90.8776 82.1084 89.2698V57.0824L86.5491 60.9177C86.6421 61.0117 86.5966 61.0865 86.6916 61.1698L87.0517 61.6378C88.7235 63.4443 91.4005 63.4443 93.0733 61.6378C94.7461 59.8312 94.7105 56.903 93.0397 55.0954ZM48.4736 57.6892H63.4124C65.4047 57.6892 67.2695 58.4681 67.2695 60.6196V68.3724H48.4736V57.6892ZM37.298 52.9374C39.6465 52.9374 41.6388 55.089 41.6388 57.6262C41.6388 60.2383 39.6465 62.3129 37.298 62.3129C34.9495 62.3129 32.9571 60.2393 32.9571 57.6262C32.9571 55.0879 34.9495 52.9374 37.298 52.9374ZM34.9495 64.0992H42.5381V58.9317C42.5381 57.701 43.4501 56.778 44.5166 56.778C45.6562 56.778 46.4951 57.6999 46.4951 58.9317V64.9239C46.4951 66.3074 45.2674 68.3724 44.0576 68.3724H34.9495C33.8118 68.3724 32.9571 67.427 32.9571 66.1984C32.9571 65.0446 33.8118 64.0992 34.9495 64.0992ZM73.205 84.3972H69.248V76.919H31.6562V84.3972H27.6992V54.4672C27.6992 53.0837 28.3976 51.8552 29.6777 51.8552C30.9578 51.8552 31.6562 53.0837 31.6562 54.4672V70.5091H69.248V60.8461C69.248 59.4627 69.9811 58.3089 71.1909 58.3089C72.472 58.3089 73.205 59.4627 73.205 60.8461V84.3972Z" fill="#6E0D25" fill-opacity="0.9"/>
<g filter="url(#filter0_d)">
<path d="M212.52 92.9437C210.405 92.9437 208.074 92.4402 205.527 91.4333C203.003 90.4264 199.659 88.8914 195.498 86.8285L191.234 84.7287C188.346 88.1915 185.321 89.9229 182.16 89.9229C180.522 89.9229 179.078 89.5177 177.828 88.7072C176.577 87.8722 175.622 86.853 174.962 85.6496C174.303 84.4462 173.973 83.3042 173.973 82.2236C173.973 81.0448 174.45 80.1116 175.406 79.4239C176.361 78.7117 177.873 78.3556 179.943 78.3556C182.353 78.3556 185.708 78.9696 190.006 80.1975C191.37 77.6188 192.655 74.5367 193.86 70.951C195.066 67.39 196.544 62.601 198.295 56.584L200.239 49.8794C197.738 48.9952 195.759 47.6936 194.304 45.9745C192.871 44.2799 192.155 42.4257 192.155 40.4119C192.155 38.7173 192.632 37.1332 193.587 35.6597C194.543 34.1861 195.759 33.4494 197.238 33.4494C196.851 33.9651 196.578 34.751 196.419 35.807C196.237 36.8876 196.146 37.9191 196.146 38.9015C196.146 41.0872 196.578 42.9537 197.442 44.5009C198.284 46.0236 199.409 47.2024 200.819 48.0374C203.344 39.7119 205.97 33.2283 208.699 28.5867C211.428 23.9205 214.669 21.5873 218.421 21.5873C220.445 21.5873 222.276 22.2996 223.913 23.724C225.551 25.1238 226.369 27.4201 226.369 30.6128C226.369 33.5599 225.63 36.6052 224.152 39.7488C222.674 42.9169 220.457 45.5693 217.5 47.7059C214.521 49.8671 210.928 50.9477 206.721 50.9477H205.424C203.173 58.2417 201.172 64.2833 199.421 69.0723C197.692 73.8367 195.759 77.9258 193.622 81.3395C194.054 81.536 194.52 81.7079 195.02 81.8553C195.498 82.0026 195.987 82.1622 196.487 82.3342C201.126 83.8568 204.833 84.9865 207.608 85.7233C210.405 86.4601 212.975 86.8285 215.317 86.8285C217.5 86.8285 219.433 86.3618 221.116 85.4286C220.252 88.081 219.115 89.9966 217.705 91.1754C216.272 92.3542 214.544 92.9437 212.52 92.9437ZM205.902 49.2531C208.949 49.2531 211.701 48.0497 214.157 45.6429C216.613 43.2116 218.524 40.3382 219.888 37.0227C221.253 33.6827 221.935 30.7479 221.935 28.2183C221.935 26.6219 221.662 25.4922 221.116 24.8291C220.57 24.1415 219.865 23.7977 219.001 23.7977C216.704 23.7977 214.601 25.9097 212.69 30.1339C210.78 34.3335 208.517 40.7066 205.902 49.2531ZM181.819 87.381C184.116 87.381 186.219 86.018 188.13 83.292C184.104 81.5237 181 80.6396 178.817 80.6396C176.998 80.6396 176.088 81.2044 176.088 82.3342C176.088 83.4393 176.656 84.5567 177.793 85.6865C178.908 86.8162 180.25 87.381 181.819 87.381ZM234.318 89.1493C231.088 89.1493 228.621 88.1915 226.915 86.2759C225.187 84.3603 224.323 81.8921 224.323 78.8713C224.323 75.4085 225.392 71.6632 227.529 67.6356C229.644 63.6324 232.328 60.2678 235.58 57.5418C238.832 54.7912 242.016 53.4159 245.131 53.4159C248.497 53.4159 250.18 55.2087 250.18 58.7943C250.18 61.6923 249.179 64.3938 247.178 66.8988C245.154 69.4038 242.561 71.4545 239.4 73.0508C236.217 74.6472 233.044 75.6173 229.883 75.9611C229.678 76.968 229.576 78.024 229.576 79.1292C229.576 81.2658 230.065 83.0341 231.043 84.434C232.021 85.8584 233.681 86.5706 236.023 86.5706C239.366 86.5706 242.721 85.0725 246.086 82.0763C249.475 79.0555 252.238 75.3348 254.376 70.9142L255.365 71.7246C253.182 76.9557 250.146 81.1676 246.257 84.3603C242.391 87.553 238.411 89.1493 234.318 89.1493ZM230.292 74.2665C232.589 73.3824 234.989 72.1544 237.49 70.5826C240.014 68.9863 242.163 67.1075 243.937 64.9463C245.711 62.8097 246.598 60.5626 246.598 58.2049C246.598 57.4927 246.473 56.9769 246.223 56.6577C245.973 56.3138 245.518 56.1419 244.858 56.1419C243.175 56.1419 241.333 57.0629 239.332 58.9048C237.354 60.7222 235.534 63.043 233.874 65.8673C232.191 68.7162 230.997 71.5159 230.292 74.2665ZM277.129 110C275.81 110 274.695 109.57 273.786 108.711C272.853 107.851 272.387 106.574 272.387 104.879C272.387 102.694 273.172 100.667 274.741 98.801C276.333 96.9591 278.152 95.375 280.199 94.0488C282.245 92.7226 284.963 91.1386 288.352 89.2966C289.875 85.0725 291.262 80.2098 292.513 74.7086C287.669 82.2728 283.223 86.0548 279.175 86.0548C277.265 86.0548 275.764 85.269 274.673 83.6972C273.581 82.1254 273.035 80.0502 273.035 77.4715C273.035 73.5666 274.195 69.8459 276.515 66.3094C278.834 62.7729 281.7 59.9363 285.111 57.7997C288.522 55.6385 291.729 54.5579 294.731 54.5579C296.209 54.5579 297.312 54.828 298.039 55.3683C298.79 55.8841 299.165 56.5594 299.165 57.3944C299.165 57.8611 299.04 58.254 298.79 58.5733C298.54 58.9171 298.335 59.1136 298.176 59.1627C297.63 58.2786 296.539 57.8365 294.901 57.8365C292.172 57.8365 289.534 58.9539 286.987 61.1888C284.463 63.4237 282.405 66.1375 280.813 69.3301C279.221 72.5228 278.425 75.3839 278.425 77.9135C278.425 79.3134 278.686 80.3817 279.209 81.1185C279.733 81.8553 280.426 82.2236 281.29 82.2236C282.769 82.2236 284.611 81.143 286.817 78.9818C289.045 76.7961 291.251 73.9964 293.434 70.5826L294.389 65.8673C294.617 64.7622 295.072 63.7307 295.754 62.7729C296.436 61.8396 297.38 61.373 298.585 61.373C299.063 61.373 299.631 61.459 300.291 61.6309C300.291 63.2272 299.688 66.4322 298.483 71.2457C297.3 76.0348 295.799 80.9097 293.98 85.8707C296.823 84.3971 299.461 82.3464 301.894 79.7186C304.328 77.0908 306.147 74.156 307.352 70.9142L308.41 71.7983C307.25 75.4085 305.192 78.6871 302.235 81.6342C299.256 84.5813 296.209 86.8407 293.093 88.4125C290.523 95.1417 287.931 100.422 285.316 104.253C282.7 108.084 279.971 110 277.129 110ZM276.89 107.163C278.141 107.163 279.71 105.886 281.597 103.332C283.485 100.753 285.429 96.8731 287.431 91.6912C283.451 93.8769 280.369 95.9153 278.186 97.8064C276.003 99.6974 274.911 101.785 274.911 104.069C274.911 105.027 275.093 105.776 275.457 106.316C275.798 106.881 276.276 107.163 276.89 107.163ZM321.577 47.0428C320.599 47.0428 319.792 46.7972 319.155 46.306C318.541 45.7903 318.234 45.0658 318.234 44.1325C318.234 42.9537 318.882 41.8977 320.178 40.9644C321.497 40.0066 322.839 39.5277 324.204 39.5277C326 39.5277 326.899 40.4487 326.899 42.2906C326.899 43.3958 326.341 44.4641 325.227 45.4956C324.113 46.5271 322.896 47.0428 321.577 47.0428ZM311.753 87.5284C309.729 87.5284 308.171 86.8407 307.079 85.4654C305.988 84.0901 305.442 82.3096 305.442 80.1238C305.442 77.8153 306.056 74.6349 307.284 70.5826C308.512 66.5058 310.047 62.9325 311.889 59.8626C313.708 56.7927 315.494 55.2578 317.245 55.2578C317.745 55.2578 318.166 55.442 318.507 55.8104C318.871 56.1542 319.053 56.6208 319.053 57.2102C319.053 58.0453 318.177 60.0223 316.426 63.1413C314.629 66.383 313.197 69.281 312.128 71.8352C311.059 74.4139 310.525 76.8452 310.525 79.1292C310.525 81.1922 310.843 82.592 311.48 83.3288C312.094 84.0656 313.117 84.434 314.55 84.434C318.803 84.434 322.998 79.9274 327.137 70.9142L327.888 71.7983C326.364 76.7593 324.113 80.6273 321.134 83.4025C318.154 86.1531 315.027 87.5284 311.753 87.5284ZM332.561 89.2966C327.694 89.2966 325.261 86.3864 325.261 80.5659C325.261 78.0363 325.682 74.8928 326.523 71.1352C327.387 67.4023 328.547 63.436 330.003 59.2364C328.706 59.0153 327.729 58.782 327.069 58.5364V56.9524C329.025 57.198 330.23 57.3208 330.685 57.3208C333.073 50.5916 335.643 44.7711 338.394 39.8593C341.169 34.9229 343.341 32.4547 344.91 32.4547C345.342 32.4547 345.74 32.6389 346.104 33.0073C346.468 33.3511 346.65 33.8177 346.65 34.4072C346.65 35.1685 346.308 36.2859 345.626 37.7595C344.944 39.233 343.784 41.5047 342.147 44.5746C341.874 45.164 341.021 46.7972 339.588 49.4741C338.178 52.1511 336.893 54.8526 335.734 57.5786H338.77C343.295 57.5786 347.195 57.3944 350.47 57.0261V58.6469C344.535 59.3346 339.736 59.6784 336.075 59.6784H334.847C331.845 67.1198 330.344 73.5543 330.344 78.9818C330.344 81.5114 330.696 83.3165 331.401 84.3971C332.106 85.5023 333.278 86.0548 334.915 86.0548C337.712 86.0548 340.475 84.7041 343.204 82.0026C345.933 79.3257 348.355 75.6295 350.47 70.9142L351.562 71.7983C349.538 76.9312 346.809 81.1308 343.375 84.3971C339.918 87.6635 336.314 89.2966 332.561 89.2966ZM357.77 89.1493C354.541 89.1493 352.073 88.1915 350.368 86.2759C348.639 84.3603 347.775 81.8921 347.775 78.8713C347.775 75.4085 348.844 71.6632 350.982 67.6356C353.097 63.6324 355.78 60.2678 359.032 57.5418C362.284 54.7912 365.468 53.4159 368.584 53.4159C371.972 53.4159 373.667 55.2087 373.667 58.7943C373.667 61.6923 372.655 64.3938 370.631 66.8988C368.607 69.4038 366.014 71.4545 362.853 73.0508C359.692 74.6472 356.519 75.6173 353.336 75.9611C353.131 76.968 353.029 78.024 353.029 79.1292C353.029 81.2658 353.518 83.0341 354.495 84.434C355.473 85.8584 357.133 86.5706 359.476 86.5706C362.819 86.5706 366.185 85.0725 369.573 82.0763C372.939 79.0555 375.691 75.3348 377.828 70.9142L378.817 71.7246C376.634 76.9557 373.598 81.1676 369.71 84.3603C365.843 87.553 361.864 89.1493 357.77 89.1493ZM353.745 74.2665C356.042 73.3824 358.452 72.1544 360.977 70.5826C363.478 68.9863 365.616 67.1075 367.39 64.9463C369.164 62.8097 370.051 60.5626 370.051 58.2049C370.051 57.4927 369.926 56.9769 369.675 56.6577C369.425 56.3138 368.982 56.1419 368.345 56.1419C366.639 56.1419 364.797 57.0629 362.819 58.9048C360.818 60.7222 358.987 63.043 357.327 65.8673C355.667 68.7162 354.473 71.5159 353.745 74.2665ZM401.332 88.5967C400.354 88.5967 399.546 87.688 398.91 85.8707C398.273 84.0287 397.955 81.8798 397.955 79.4239C397.955 73.9964 399.501 66.6778 402.594 57.4681C405.687 48.283 409.189 40.0926 413.1 32.8968C417.035 25.701 420.15 22.1031 422.447 22.1031C423.311 22.1031 423.982 22.6802 424.46 23.8345C424.915 24.9888 425.142 26.2781 425.142 27.7025C425.142 30.4532 424.232 34.137 422.413 38.7541C420.571 43.3467 418.195 47.7673 415.284 52.016C412.373 56.2402 409.382 59.3592 406.312 61.373C405.334 63.8535 404.584 66.7269 404.061 69.9932C403.538 73.2596 403.276 76.1944 403.276 78.7976C403.276 79.7309 403.333 80.7255 403.447 81.7816C405.63 74.9542 408.097 69.4284 410.849 65.2042C413.623 61.0046 416.694 58.9048 420.059 58.9048C422.152 58.9048 423.709 59.6784 424.733 61.2257C425.779 62.7974 426.302 64.6762 426.302 66.862C426.302 68.1636 426.154 69.4038 425.858 70.5826C425.54 71.7615 425.062 73.2841 424.426 75.1506C423.88 76.747 423.471 78.024 423.198 78.9818C422.925 79.9151 422.788 80.8238 422.788 81.7079C422.788 82.8376 423.004 83.6726 423.436 84.2129C423.869 84.7778 424.471 85.0602 425.244 85.0602C427.086 85.0602 429.27 83.6603 431.794 80.8606C434.296 78.0609 436.365 74.7454 438.002 70.9142L439.06 71.9825C437.263 76.4523 434.955 80.1361 432.135 83.0341C429.338 85.9321 426.404 87.381 423.334 87.381C421.538 87.381 420.15 86.8653 419.172 85.8338C418.195 84.8023 417.706 83.4516 417.706 81.7816C417.706 80.5045 418.115 78.417 418.934 75.519C419.798 72.3263 420.23 69.9687 420.23 68.446C420.23 66.9725 419.946 65.8919 419.377 65.2042C418.809 64.5411 418.058 64.2096 417.126 64.2096C415.102 64.2096 413.339 65.4866 411.838 68.0408C410.337 70.6195 408.711 74.2297 406.96 78.8713C405.664 82.285 404.629 84.7655 403.856 86.3127C403.105 87.8354 402.264 88.5967 401.332 88.5967ZM407.37 57.9102C409.735 55.9209 412.077 53.0229 414.397 49.2163C416.716 45.4096 418.627 41.6398 420.128 37.9068C421.628 34.1493 422.379 31.5092 422.379 29.9865C422.379 29.5199 422.265 29.2866 422.038 29.2866C421.447 29.2866 420.207 30.7479 418.32 33.6704C416.432 36.5684 414.454 40.2277 412.384 44.6483C410.315 49.0689 408.643 53.4895 407.37 57.9102ZM442.573 87.8968C440.777 87.8968 439.31 87.0249 438.173 85.2812C437.013 83.5376 436.433 81.4377 436.433 78.9818C436.433 76.7961 436.865 74.0946 437.729 70.8774C438.571 67.6601 439.572 64.8604 440.731 62.4782C441.914 60.0959 442.892 58.9048 443.665 58.9048C443.983 58.9048 444.461 59.0767 445.098 59.4206C445.712 59.7889 446.235 60.2064 446.667 60.6731C445.53 62.6132 444.336 65.4007 443.085 69.0354C441.834 72.6456 441.209 75.7769 441.209 78.4293C441.209 79.78 441.414 81.1062 441.823 82.4078C442.232 83.7095 443.006 84.3603 444.143 84.3603C446.053 84.3603 448.145 82.4569 450.419 78.6503C452.671 74.8436 455.104 70.0301 457.719 64.2096L459.05 61.2993C461.665 61.8151 462.973 62.5764 462.973 63.5833C462.973 63.7061 462.848 64.0991 462.597 64.7622C462.347 65.4498 462.12 66.0638 461.915 66.6041C460.664 69.6003 459.607 72.4123 458.743 75.0401C457.901 77.6679 457.481 79.8905 457.481 81.7079C457.481 84.0656 458.379 85.2444 460.175 85.2444C461.381 85.2444 462.802 84.6673 464.439 83.513C466.077 82.3587 467.748 80.701 469.454 78.5398C471.137 76.354 472.604 73.8122 473.854 70.9142L474.912 71.7246C473.775 74.8436 472.297 77.6311 470.477 80.087C468.635 82.5183 466.657 84.434 464.542 85.8338C462.404 87.2091 460.38 87.8968 458.47 87.8968C454.649 87.8968 452.739 85.711 452.739 81.3395C452.739 80.1607 452.932 78.6871 453.319 76.9189C451.568 80.2835 449.817 82.9604 448.066 84.9497C446.314 86.9144 444.484 87.8968 442.573 87.8968ZM486.476 87.5284C484.611 87.5284 483.144 87.0004 482.076 85.9443C481.029 84.8883 480.506 83.5007 480.506 81.7816C480.506 79.7923 481.291 76.9066 482.86 73.1245C483.565 71.1843 484.1 69.6371 484.463 68.4828C484.827 67.3286 485.009 66.2603 485.009 65.2779C485.009 63.8043 484.691 62.6378 484.054 61.7782C483.417 60.9187 482.724 60.2064 481.973 59.6416C481.2 59.0767 480.677 58.7083 480.404 58.5364C479.199 61.8519 477.914 65.0814 476.549 68.225C475.185 71.3685 474.048 73.7999 473.138 75.519L472.388 74.0086C475.003 68.532 477.209 62.9325 479.005 57.2102C478.46 56.6208 478.187 55.9209 478.187 55.1104C478.187 54.0299 478.391 53.0229 478.801 52.0897C479.21 51.1564 479.71 50.4197 480.302 49.8794C480.87 49.3391 481.314 49.0689 481.632 49.0689C482.405 49.0689 482.792 49.7811 482.792 51.2056C482.792 51.4511 482.655 51.9792 482.383 52.7896C482.11 53.6246 481.939 54.1895 481.871 54.4842C481.871 55.0736 482.11 55.6139 482.587 56.1051C483.042 56.6208 483.793 57.2594 484.839 58.0207C486.522 59.3223 487.841 60.5994 488.796 61.8519C489.751 63.129 490.228 64.7622 490.228 66.7514C490.228 68.0531 490.035 69.3424 489.648 70.6195C489.285 71.872 488.716 73.5297 487.943 75.5927C486.738 78.4415 486.135 80.4799 486.135 81.7079C486.135 83.4762 486.954 84.3603 488.591 84.3603C490.228 84.3603 491.991 83.6481 493.878 82.2236C495.766 80.8238 497.494 79.0801 499.064 76.9926C500.655 74.8805 501.804 72.9403 502.509 71.1721L503.566 72.0562C501.883 76.133 499.427 79.7309 496.198 82.8499C492.991 85.9689 489.751 87.5284 486.476 87.5284ZM507.592 87.8968C505.363 87.8968 503.714 87.0741 502.645 85.4286C501.576 83.7831 501.042 81.5728 501.042 78.7976C501.042 73.4929 502.736 66.2848 506.125 57.1734C509.513 48.062 513.288 39.8593 517.45 32.5652C521.634 25.2466 524.648 21.5873 526.49 21.5873C527.263 21.5873 527.911 22.3118 528.434 23.7608C528.957 25.2098 529.219 26.6711 529.219 28.1446C529.219 30.8461 528.195 34.837 526.149 40.1171C524.102 45.3973 521.407 50.7389 518.064 56.1419C514.744 61.5695 511.196 65.9655 507.421 69.3301C506.716 72.7438 506.364 75.7155 506.364 78.2451C506.364 82.7885 507.569 85.0602 509.979 85.0602C511.981 85.0602 514.039 83.6726 516.154 80.8974C518.246 78.1468 520.111 74.8191 521.748 70.9142L522.976 71.6141C518.291 82.4692 513.163 87.8968 507.592 87.8968ZM508.171 66.3094C511.173 63.0676 514.107 58.9908 516.972 54.079C519.838 49.1672 522.169 44.4518 523.965 39.933C525.762 35.4141 526.66 32.16 526.66 30.1707C526.66 29.2129 526.467 28.734 526.08 28.734C525.33 28.734 523.761 30.7601 521.373 34.8124C519.008 38.8401 516.574 43.7764 514.073 49.6215C511.549 55.442 509.581 61.0046 508.171 66.3094ZM528.946 89.1493C525.739 89.1493 523.272 88.1915 521.544 86.2759C519.838 84.3603 518.985 81.8921 518.985 78.8713C518.985 75.4085 520.043 71.6632 522.158 67.6356C524.295 63.6324 526.99 60.2678 530.242 57.5418C533.471 54.7912 536.644 53.4159 539.76 53.4159C543.148 53.4159 544.842 55.2087 544.842 58.7943C544.842 61.6923 543.83 64.3938 541.806 66.8988C539.782 69.4038 537.19 71.4545 534.029 73.0508C530.868 74.6472 527.706 75.6173 524.545 75.9611C524.318 76.968 524.204 78.024 524.204 79.1292C524.204 81.2658 524.693 83.0341 525.671 84.434C526.672 85.8584 528.343 86.5706 530.686 86.5706C534.006 86.5706 537.36 85.0725 540.749 82.0763C544.137 79.0555 546.889 75.3348 549.004 70.9142L549.993 71.7246C547.81 76.9557 544.785 81.1676 540.919 84.3603C537.031 87.553 533.039 89.1493 528.946 89.1493ZM524.955 74.2665C527.252 73.3824 529.651 72.1544 532.152 70.5826C534.654 68.9863 536.792 67.1075 538.566 64.9463C540.339 62.8097 541.226 60.5626 541.226 58.2049C541.226 57.4927 541.113 56.9769 540.885 56.6577C540.635 56.3138 540.18 56.1419 539.521 56.1419C537.838 56.1419 535.996 57.0629 533.995 58.9048C531.993 60.7222 530.163 63.043 528.502 65.8673C526.842 68.7162 525.66 71.5159 524.955 74.2665Z" fill="#FFFFB3"/>
</g>
<path d="M139.861 3.68384V103.148" stroke="#DCAB6B" stroke-linecap="round"/>
</g>
<defs>
<filter id="filter0_d" x="169.973" y="21.5873" width="384.02" height="96.4126" filterUnits="userSpaceOnUse" color-interpolation-filters="sRGB">
<feFlood flood-opacity="0" result="BackgroundImageFix"/>
<feColorMatrix in="SourceAlpha" type="matrix" values="0 0 0 0 0 0 0 0 0 0 0 0 0 0 0 0 0 0 127 0"/>
<feOffset dy="4"/>
<feGaussianBlur stdDeviation="2"/>
<feColorMatrix type="matrix" values="0 0 0 0 0 0 0 0 0 0 0 0 0 0 0 0 0 0 0.25 0"/>
<feBlend mode="normal" in2="BackgroundImageFix" result="effect1_dropShadow"/>
<feBlend mode="normal" in="SourceGraphic" in2="effect1_dropShadow" result="shape"/>
</filter>
<clipPath id="clip0">
<rect width="550" height="110" fill="white"/>
</clipPath>
</defs>
</svg>
